# xmcd
#
# Track frame offsets: 
#        150
#        22450
#        37777
#        56745
#        75017
#        95760
#        114752
#        133035
#        151515
#        169927
#        189090
#        210690
#        228142
#        247032
#        265692
#        283232
#        303560
#        323697
#
# Disc length: 4683 seconds
#
# Revision: 1
# Processed by: cddbd v1.5.2PL0 Copyright (c) Steve Scherf et al.
# Submitted via: ExactAudioCopy v0.95a5
#
DISCID=e6124912
DTITLE=Ray Parker Jr. - k-The Best of Ray Parker Jr.
DYEAR=1998
DGENRE=R&B
TTITLE0=It's Time To Party Now
TTITLE1=You Can't Change That
TTITLE2=Let Me Go
TTITLE3=A Woman Needs Love (Just Like You Do)
TTITLE4=Jack And Jill
TTITLE5=Bad Boy
TTITLE6=The Other Woman
TTITLE7=I Still Can't Get Over Loving You
TTITLE8=Ghostbusters
TTITLE9=Jamie
TTITLE10=Girls Are More Fun
TTITLE11=It's Our Own Affair
TTITLE12=Woman Out Of Control
TTITLE13=That Old Song
TTITLE14=Two Places At The Same Time
TTITLE15=For Those Who Like To Groove
TTITLE16=The People Next Door
TTITLE17=Ghostbusters (Long Edit)
EXTD=
EXTT0=
EXTT1=
EXTT2=
EXTT3=
EXTT4=
EXTT5=
EXTT6=
EXTT7=
EXTT8=
EXTT9=
EXTT10=
EXTT11=
EXTT12=
EXTT13=
EXTT14=
EXTT15=
EXTT16=
EXTT17=
PLAYORDER=
